<svg width="246" height="195" viewBox="0 0 246 195" fill="none" xmlns="http://www.w3.org/2000/svg">
<path d="M124.081 0C124.507 3.02446 125.089 6.08769 125.438 9.11215C126.756 22.1794 127.997 35.2078 129.315 48.2362C129.552 50.2185 130.088 52.1535 130.905 53.9749C131.412 55.0035 132.19 55.8748 133.154 56.4953C136.023 58.4729 136.334 59.0933 135.791 62.583C135.785 62.8114 135.83 63.0381 135.924 63.2463C136.018 63.4545 136.158 63.6387 136.334 63.785C138.738 65.5299 141.219 67.1973 143.662 68.8646C144.404 69.4275 145.309 69.7323 146.241 69.7323C147.172 69.7323 148.077 69.4275 148.819 68.8646C150.293 67.8952 151.805 67.0034 153.317 66.0728C153.627 65.8689 153.951 65.6875 154.286 65.5299C155.333 65.1034 156.419 64.5993 157.427 65.5299C158.435 66.4605 157.97 67.5075 157.427 68.5156C155.644 72.6258 153.55 76.6584 152.154 80.8849C149.958 86.3474 148.535 92.0899 147.927 97.9459C147.263 103.956 148.171 110.035 150.564 115.589C151.158 117.107 152.098 118.465 153.31 119.556C154.522 120.646 155.971 121.439 157.544 121.87C158.933 122.067 160.35 121.954 161.691 121.538C163.032 121.123 164.264 120.415 165.299 119.466C165.678 119.052 165.898 118.516 165.919 117.954C166.983 113.618 167.259 109.126 166.733 104.693C166.488 103.882 165.984 103.174 165.299 102.676C163.913 101.893 162.443 101.269 160.917 100.815C159.377 100.216 158.069 99.1404 157.183 97.7454C156.297 96.3504 155.88 94.7089 155.993 93.0602C155.904 91.7856 156.083 90.5065 156.517 89.3048C156.951 88.103 157.631 87.005 158.513 86.0807C161.533 82.7645 165.522 80.485 169.913 79.5665C175.496 78.2094 181.158 77.2788 186.741 75.9604C197.063 73.6604 206.887 69.5232 215.745 63.7463C219.748 61.1945 223.188 57.8529 225.854 53.9259C228.521 49.999 230.359 45.5693 231.255 40.9077C231.565 39.4731 231.682 37.9996 231.914 36.5261H232.147C232.699 42.568 231.809 48.6547 229.549 54.2851C225.722 63.0554 219.257 70.415 211.053 75.34C206.547 78.1021 201.843 80.5257 196.978 82.591C193.527 84.142 190.115 85.8481 186.741 87.5542C182.622 89.8851 179.063 93.0876 176.311 96.9378C175.855 97.7651 175.717 98.7302 175.923 99.652C176.427 102.715 177.358 105.701 177.707 108.764C178.587 114.652 177.634 120.668 174.977 125.995C172.32 131.323 168.088 135.704 162.856 138.543C161.15 139.435 159.366 140.211 157.621 141.064C155.876 141.917 155.682 141.956 156.38 143.894C158.191 148.713 159.073 153.831 158.978 158.978C158.663 166.86 155.87 174.441 150.997 180.644C146.124 186.847 139.419 191.355 131.836 193.527C129.084 194.451 126.207 194.948 123.305 195C115.181 194.835 107.314 192.123 100.816 187.245C94.3402 182.183 89.697 175.143 87.5932 167.198C85.6659 159.378 86.2215 151.152 89.183 143.662C89.8422 141.839 89.8422 141.801 87.981 141.064C84.0642 139.643 80.4285 137.542 77.2403 134.86C71.8372 130.011 68.4822 123.287 67.8567 116.054C67.4053 110.589 68.0648 105.088 69.7955 99.8847C69.9554 99.3549 70 98.7971 69.9264 98.2487C69.8529 97.7003 69.6628 97.174 69.3689 96.7051C67.8198 94.3347 65.8326 92.2817 63.5139 90.6562C59.4137 87.7936 55.0203 85.3759 50.4079 83.444C46.5304 81.6991 42.6529 79.993 38.7754 78.0931C31.6445 74.5495 25.4227 69.4156 20.5899 63.0871C15.9623 56.9369 13.3728 49.494 13.1838 41.7996C13.1838 39.7833 12.9512 37.9221 12.8348 35.7894H13.3001C13.5665 36.9152 13.7736 38.0541 13.9205 39.2016C14.6083 44.3664 16.4593 49.3078 19.334 53.6534C22.2087 57.9991 26.0322 61.6356 30.5163 64.2891C41.1154 70.9451 52.9204 75.451 65.2588 77.5502C69.8544 78.3631 74.3888 79.4902 78.8301 80.9236C81.3914 81.8488 83.7582 83.2426 85.8096 85.0338C87.7866 86.6158 89.0872 88.891 89.4473 91.3973C89.8074 93.9036 89.1999 96.4529 87.7483 98.5275C86.6781 99.9995 85.1726 101.098 83.4443 101.668C78.2097 103.917 78.9852 102.327 78.675 108.454C78.6422 111.646 78.8626 114.836 79.3341 117.993C79.4633 118.813 79.9087 119.551 80.575 120.048C81.4607 120.827 82.4985 121.415 83.6228 121.773C84.7472 122.131 85.9335 122.252 87.107 122.128C88.2804 122.004 89.4154 121.638 90.4401 121.053C91.4649 120.468 92.3572 119.677 93.0605 118.729C95.633 115.479 97.1846 111.539 97.5197 107.407C98.3962 98.6531 97.1321 89.8173 93.836 81.6604C92.2463 77.7829 90.4626 73.5564 88.7953 69.485C88.5284 68.8516 88.2954 68.2044 88.0973 67.5462C87.9687 67.251 87.9263 66.9254 87.9749 66.6071C88.0235 66.2888 88.1613 65.9908 88.3721 65.7474C88.583 65.5041 88.8585 65.3254 89.1667 65.232C89.4748 65.1386 89.8031 65.1344 90.1136 65.2197C90.8352 65.3479 91.53 65.597 92.1687 65.9565C93.6034 66.8095 94.9993 67.7401 96.3952 68.6319C97.3265 69.3039 98.4457 69.6655 99.5941 69.6655C100.743 69.6655 101.862 69.3039 102.793 68.6319C105.003 67.0809 107.175 65.5299 109.307 63.8626C109.497 63.6612 109.642 63.423 109.736 63.1629C109.829 62.9027 109.868 62.6262 109.85 62.3504C109.424 58.9382 109.85 58.0076 112.836 56.4178C113.486 56.1116 114.052 55.6514 114.485 55.0771C114.917 54.5028 115.203 53.8316 115.317 53.1219C116.015 49.2444 116.83 45.3669 117.256 41.4894C118.458 30.516 119.466 19.5427 120.552 8.5693C120.552 6.74687 120.824 4.69179 121.095 3.02446C121.331 1.99048 121.655 0.978626 122.064 0L124.081 0ZM115.666 137.923L114.154 138.543C109.479 140.781 105.794 144.664 103.804 149.45C101.814 154.235 101.659 159.586 103.368 164.479C105.077 169.372 108.531 173.462 113.068 175.967C117.605 178.472 122.907 179.215 127.958 178.055C131.28 177.155 134.334 175.461 136.857 173.119C139.379 170.777 141.295 167.857 142.439 164.611C143.584 161.365 143.922 157.889 143.426 154.483C142.93 151.077 141.614 147.842 139.591 145.058C137.488 142.091 134.602 139.768 131.254 138.35C130.285 137.923 129.858 138.35 129.897 139.241V141.607C129.897 147.578 129.897 153.549 129.897 159.521C129.897 161.925 129.432 162.39 127.105 162.39H118.303C116.597 162.39 116.093 161.964 115.822 160.258C115.783 159.702 115.783 159.145 115.822 158.59C115.822 152.27 115.822 145.988 115.822 139.668C115.783 139.203 115.705 138.699 115.666 137.923ZM159.172 132.688V132.262C158.397 132.262 157.582 132.262 156.768 132.262C154.875 132.422 152.969 132.156 151.192 131.486C149.414 130.815 147.808 129.755 146.493 128.384C143.255 125.252 140.878 121.34 139.591 117.023C137.175 108.137 137.175 98.7669 139.591 89.8807C139.901 88.3685 139.862 88.2521 138.389 88.2521H107.485C106.322 88.2521 105.973 88.5623 106.322 89.7256C108.154 96.015 108.682 102.612 107.873 109.113C107.396 115.388 105.121 121.392 101.32 126.407C99.8037 128.503 97.7493 130.15 95.3739 131.174C92.9985 132.197 90.3905 132.56 87.8259 132.223C87.3614 132.184 86.8945 132.184 86.43 132.223C87.9076 133.947 89.5291 135.543 91.2769 136.992C91.4708 136.992 92.2075 136.992 92.4789 136.682C93.8748 135.209 95.1932 133.658 96.3564 132.107C101.053 126.721 107.291 122.907 114.225 121.18C121.16 119.453 128.457 119.897 135.132 122.452C142.063 125.102 148.017 129.811 152.193 135.946C152.58 136.488 153.046 136.992 153.511 137.574L159.172 132.688Z" fill="white"/>
<path d="M0 79.7995C0.387751 79.7995 0.891827 79.7995 1.12448 80.1873C7.61969 87.6219 16.2194 92.9088 25.7854 95.3483C29.1589 96.434 32.6099 97.4034 36.0608 98.2953C41.1308 99.5592 45.6914 102.347 49.1281 106.283C51.4546 108.92 53.626 111.673 55.8749 114.387C55.9531 114.537 55.9939 114.703 55.9939 114.872C55.9939 115.04 55.9531 115.207 55.8749 115.356L53.3158 113.922C48.4832 110.874 43.069 108.867 37.418 108.028C33.5405 107.563 29.8956 106.981 26.1344 106.826C20.7722 106.467 15.6767 104.355 11.6325 100.816C6.21978 96.2958 2.41174 90.1485 0.775502 83.2893C0.581627 82.3587 0.271426 81.4281 0 80.6526V79.7995Z" fill="white"/>
<path d="M2.59803 51.0277C2.83068 51.5318 3.1021 52.0359 3.29598 52.5787C6.96718 62.0097 13.9588 69.7735 22.955 74.4091C25.5141 75.7663 28.112 77.1234 30.71 78.2866C36.0614 80.6427 40.672 84.4088 44.0486 89.1824C47.2717 93.6581 49.953 98.5 52.0363 103.607C52.2134 104.055 52.2134 104.554 52.0363 105.003C51.7649 104.77 51.4547 104.615 51.222 104.382C46.4597 99.2152 40.4322 95.3795 33.7344 93.2538C27.6585 91.1978 21.9798 88.1158 16.9448 84.1417C9.10631 77.5876 4.04795 68.3024 2.7919 58.1624C2.4817 55.8359 2.3266 53.4706 2.05518 51.1441L2.59803 51.0277Z" fill="white"/>
<path d="M193.178 104.964C193.156 104.628 193.156 104.291 193.178 103.956C195.728 97.6349 199.204 91.7282 203.492 86.4294C206.653 82.7666 210.64 79.9089 215.124 78.0927C222.342 75.2388 228.842 70.8303 234.163 65.1806C237.575 61.5638 240.214 57.2889 241.918 52.6175C242.132 52.0859 242.378 51.568 242.655 51.0665H243.004C243.04 51.544 243.04 52.0236 243.004 52.5012C242.747 59.8963 240.811 67.136 237.342 73.6724C232.211 82.0968 224.401 88.5553 215.163 92.013C212.875 92.9436 210.51 93.7966 208.222 94.766C203.769 96.4714 199.735 99.1165 196.396 102.521C195.504 103.452 194.457 104.266 193.488 105.119L193.178 104.964Z" fill="white"/>
<path d="M189.339 115.394C189.32 115.162 189.32 114.929 189.339 114.696C192.79 110.819 196.047 106.941 199.692 103.064C202.926 100.325 206.836 98.5038 211.014 97.7904C217.827 96.1876 224.445 93.8473 230.751 90.8109C236.012 88.3995 240.644 84.803 244.283 80.3028C244.521 79.9053 244.728 79.4905 244.904 79.062L245.447 79.4498C245.46 79.6046 245.46 79.7603 245.447 79.9151C244.517 84.6465 242.814 89.1924 240.406 93.37C238.403 96.724 235.731 99.6292 232.555 101.904C229.379 104.179 225.769 105.775 221.949 106.592C220.113 106.859 218.259 106.989 216.404 106.98C208.138 107.224 200.058 109.487 192.868 113.572C191.821 114.192 190.657 114.696 189.339 115.394Z" fill="white"/>
<path d="M0.348816 98.8377C0.891667 99.303 1.24064 99.4969 1.51207 99.7683C8.24707 106.029 16.7783 110.017 25.9016 111.168C30.5546 111.983 35.2852 112.138 39.9382 112.913C47.4743 114.489 54.2852 118.493 59.3257 124.313C59.5004 124.586 59.6558 124.871 59.791 125.166C59.5127 125.115 59.24 125.037 58.9768 124.933C54.2891 123.021 49.1899 122.34 44.1647 122.956C39.8994 123.305 35.5566 123.266 31.2526 123.227C25.2365 123.096 19.4258 121.014 14.6956 117.295C8.77732 112.487 3.95238 106.472 0.542691 99.652C0.454891 99.3866 0.390028 99.1142 0.348816 98.8377Z" fill="white"/>
<path d="M185.578 124.895C188.068 122.168 190.851 119.724 193.876 117.605C198.741 114.604 204.264 112.834 209.967 112.448C217.193 112.096 224.321 110.632 231.1 108.105C235.722 106.325 239.97 103.695 243.624 100.35C244.05 99.9237 244.555 99.536 245.02 99.1482L245.291 99.3809C244.586 100.714 243.809 102.009 242.965 103.258C239.987 107.394 236.79 111.368 233.387 115.162C230.543 118.01 227.136 120.232 223.383 121.688C219.631 123.143 215.616 123.8 211.596 123.615C206.555 123.615 201.514 123.344 196.473 123.072C193.412 122.867 190.347 123.427 187.555 124.701C187.051 124.934 186.547 125.089 186.004 125.283C185.461 125.477 185.849 125.011 185.578 124.895Z" fill="white"/>
<path d="M203.104 83.328C202.88 83.5828 202.634 83.8165 202.367 84.026C195.667 88.7405 191.086 95.8976 189.61 103.956C188.563 108.997 187.4 113.999 186.004 118.924C185.095 122.462 183.404 125.751 181.055 128.55C178.707 131.348 175.76 133.584 172.433 135.093L171.813 135.364H171.541L171.115 134.938C171.517 134.775 171.906 134.581 172.278 134.356C174.655 132.419 176.625 130.03 178.076 127.329C179.527 124.627 180.429 121.665 180.731 118.613C181.478 112.902 180.989 107.097 179.296 101.591C179.081 100.924 179.05 100.212 179.207 99.5292C179.364 98.8465 179.703 98.219 180.188 97.7136C185.622 91.5392 192.552 86.8658 200.312 84.1423L202.561 83.4056C202.561 83.4056 202.755 83.2892 203.104 83.328Z" fill="white"/>
<path d="M41.8773 82.8231C42.0831 82.794 42.2919 82.794 42.4977 82.8231C49.2487 85.0222 55.5145 88.4973 60.9547 93.0598C62.6608 94.6496 64.173 96.5108 65.8403 98.2169C66.1714 98.6024 66.3781 99.079 66.4335 99.5841C66.4888 100.089 66.3902 100.599 66.1505 101.047C63.8933 108.059 63.7182 115.575 65.6465 122.684C66.7866 127.167 69.3767 131.148 73.0137 134.006L73.828 134.782C73.9886 135.003 74.1312 135.236 74.2545 135.48C73.5954 135.208 73.2076 135.092 72.8586 134.898C69.287 133.092 66.1633 130.512 63.7149 127.346C61.2666 124.18 59.5553 120.507 58.7057 116.596C57.5812 112.06 56.8445 107.407 55.72 102.909C53.9527 94.9729 49.1876 88.0268 42.4202 83.5211L42.0712 83.2884L41.8773 82.8231Z" fill="white"/>
<path d="M66.1504 133.115C62.777 133.309 59.675 133.348 56.6117 133.658C51.4159 134.24 46.2588 135.132 41.1017 135.713C36.7747 136.203 32.3943 135.573 28.3812 133.882C24.3681 132.191 20.8572 129.497 18.1856 126.058C17.5264 125.321 16.9448 124.507 16.053 123.383C16.4331 123.466 16.8085 123.569 17.1775 123.693C21.2877 125.869 25.8653 127.013 30.5161 127.028C36.9915 127.299 43.467 127.028 49.9036 127.028C55.5195 127.329 60.9478 129.152 65.6076 132.301C65.6076 132.301 65.9178 132.766 66.1504 133.115Z" fill="white"/>
<path d="M228.967 123.808C228.269 124.739 227.648 125.631 226.951 126.445C224.139 129.937 220.461 132.63 216.284 134.257C212.106 135.883 207.575 136.385 203.143 135.712C195.853 134.859 188.602 134.123 181.312 133.308C180.722 133.272 180.144 133.128 179.606 132.882C182.787 130.699 186.294 129.037 189.998 127.957C192.27 127.489 194.58 127.229 196.9 127.182C201.941 127.182 206.981 127.182 212.022 127.182C217.283 127.407 222.521 126.37 227.299 124.157L228.54 123.615C228.54 123.615 228.773 123.77 228.967 123.808Z" fill="white"/>
<path d="M170.61 137.574L177.202 136.954C181.812 136.417 186.476 136.561 191.045 137.381C192.695 137.794 194.286 138.42 195.775 139.242C196.505 139.561 197.106 140.118 197.479 140.822C197.852 141.526 197.976 142.336 197.831 143.119C197.743 143.889 197.403 144.607 196.862 145.162C196.321 145.716 195.612 146.076 194.845 146.182C193.248 146.376 191.634 146.376 190.037 146.182C189.176 146.033 188.356 145.703 187.633 145.213C182.603 142.23 177.17 139.984 171.502 138.544C171.178 138.434 170.866 138.291 170.572 138.117L170.61 137.574Z" fill="white"/>
<path d="M75.185 138.001L73.983 138.505C68.0785 140.062 62.4161 142.424 57.1546 145.523C56.149 146.112 55.0238 146.466 53.8625 146.56C52.7012 146.654 51.5336 146.485 50.4465 146.066C49.7702 145.908 49.1601 145.543 48.7013 145.021C48.2425 144.5 47.958 143.849 47.8873 143.158C47.6486 142.423 47.6817 141.628 47.9806 140.916C48.2796 140.204 48.8245 139.624 49.5159 139.28C51.6089 138.236 53.8229 137.455 56.1077 136.954C61.2539 136.252 66.4715 136.252 71.6177 136.954L75.1462 137.264L75.185 138.001Z" fill="white"/>
<path d="M80.5746 141.297C79.0623 142.15 77.5501 143.003 75.9991 143.817C72.8937 145.298 70.2227 147.555 68.2441 150.37C67.6232 151.332 66.734 152.091 65.6865 152.552C64.639 153.014 63.4791 153.159 62.3503 152.968C61.8051 152.932 61.2799 152.749 60.8303 152.439C60.3808 152.128 60.0237 151.702 59.797 151.205C59.5703 150.708 59.4826 150.159 59.543 149.616C59.6034 149.073 59.8097 148.556 60.1401 148.121C61.4668 146.005 63.5216 144.446 65.9176 143.739C69.2849 142.748 72.7018 141.932 76.1542 141.297C77.5501 140.986 79.0236 140.948 80.497 140.754L80.5746 141.297Z" fill="white"/>
<path d="M164.988 140.715C169.3 140.97 173.561 141.778 177.667 143.119C179.683 143.969 181.639 144.953 183.522 146.066C184.133 146.496 184.659 147.035 185.073 147.656C185.487 148.203 185.748 148.85 185.83 149.532C185.912 150.213 185.811 150.904 185.539 151.533C185.098 152.121 184.5 152.571 183.814 152.832C183.127 153.093 182.381 153.153 181.661 153.007C180.716 152.905 179.805 152.594 178.993 152.098C178.182 151.602 177.491 150.932 176.969 150.137C175.105 147.239 172.399 144.979 169.214 143.662C167.625 142.886 166.112 141.995 164.561 141.18L164.988 140.715Z" fill="white"/>
<path d="M85.3054 143.468C85.0238 143.756 84.7261 144.028 84.4136 144.282C82.8464 145.241 81.5207 146.548 80.539 148.101C79.5574 149.654 78.9461 151.412 78.7524 153.24C78.2871 156.574 76.3096 156.574 73.6341 156.264C73.1521 156.168 72.6998 155.96 72.3142 155.655C71.9287 155.351 71.621 154.959 71.4165 154.512C71.2121 154.065 71.1167 153.576 71.1382 153.085C71.1597 152.594 71.2975 152.116 71.5403 151.689C72.0467 150.207 72.9127 148.875 74.0606 147.811C77.1043 145.589 80.6214 144.103 84.336 143.468C84.6571 143.416 84.9844 143.416 85.3054 143.468Z" fill="white"/>
<path d="M160.8 143.235C161.127 143.281 161.45 143.346 161.77 143.429C165.253 144.364 168.546 145.899 171.502 147.966C172.488 148.591 173.264 149.498 173.727 150.57C174.19 151.642 174.32 152.829 174.1 153.976C174.046 154.514 173.815 155.019 173.443 155.412C173.071 155.805 172.58 156.064 172.045 156.147C168.439 156.729 167.043 156.147 166.578 152.735C166.354 151.194 165.824 149.714 165.018 148.382C164.212 147.05 163.147 145.893 161.886 144.98C161.366 144.62 160.822 144.296 160.257 144.01L160.8 143.235Z" fill="white"/>
<path d="M121.405 113.572L119.311 111.594C118.662 111.059 118.205 110.326 118.01 109.508C117.814 108.689 117.889 107.829 118.225 107.058C118.611 106.343 119.212 105.768 119.942 105.413C120.673 105.059 121.496 104.942 122.297 105.08C122.896 105.09 123.481 105.264 123.989 105.582C124.497 105.9 124.909 106.35 125.18 106.884C125.451 107.419 125.571 108.017 125.528 108.614C125.484 109.212 125.279 109.787 124.933 110.276C123.964 111.788 124.119 112.137 125.903 112.525C127.686 112.913 128.811 113.107 130.246 113.456C130.747 113.523 131.226 113.709 131.641 113.999C131.994 114.365 132.306 114.768 132.572 115.201C132.068 115.472 131.448 116.054 131.06 115.937C127.367 115.277 123.576 115.395 119.931 116.286C118.921 116.574 117.861 116.639 116.823 116.477C115.785 116.315 114.795 115.929 113.921 115.346C113.047 114.764 112.31 113.998 111.761 113.103C111.212 112.207 110.864 111.203 110.742 110.16C110.578 109.117 110.63 108.051 110.892 107.029C111.155 106.006 111.624 105.048 112.27 104.213C112.917 103.378 113.726 102.684 114.65 102.173C115.574 101.662 116.593 101.345 117.644 101.242C119.286 100.984 120.945 100.841 122.607 100.815C124.235 100.815 125.864 100.815 127.493 100.621C128.894 100.571 130.241 100.068 131.332 99.1873C132.423 98.3062 133.198 97.0949 133.541 95.7355C133.735 95.1538 133.852 94.5722 134.046 93.9906C134.239 93.409 134.433 92.5559 135.403 92.9049C136.372 93.2539 136.954 93.6028 136.682 94.7273C135.17 100.505 132.301 103.142 126.911 103.103C124.128 102.992 121.341 103.096 118.574 103.413C117.694 103.481 116.843 103.761 116.095 104.23C115.346 104.698 114.722 105.341 114.277 106.103C113.831 106.865 113.576 107.724 113.534 108.606C113.493 109.488 113.665 110.367 114.038 111.168C114.305 111.86 114.723 112.483 115.262 112.994C115.8 113.504 116.446 113.888 117.151 114.118C117.856 114.348 118.604 114.419 119.339 114.324C120.075 114.23 120.781 113.973 121.405 113.572ZM121.909 110.47C122.607 109.617 123.499 108.997 123.421 108.492C123.344 107.988 122.335 106.903 121.948 106.98C121.564 107.113 121.211 107.322 120.911 107.595C120.611 107.869 120.37 108.2 120.203 108.57C120.203 108.88 121.095 109.617 121.909 110.47Z" fill="white"/>
</svg>
